<svg width="166" height="21" viewBox="0 0 166 21" fill="none" xmlns="http://www.w3.org/2000/svg">
<path d="M84.5728 7.63863C84.2048 7.61563 83.877 7.59838 83.5895 7.58688C83.3135 7.57538 83.0778 7.56388 82.8823 7.55238C82.8478 7.55238 82.7845 7.55238 82.6925 7.55238C82.6005 7.55238 82.5085 7.55238 82.4165 7.55238C82.3245 7.54088 82.2383 7.54088 82.1578 7.55238C82.0888 7.55238 82.0543 7.55813 82.0543 7.56963C82.0543 7.70763 82.037 7.84563 82.0025 7.98363C81.9795 8.11013 81.9738 8.26538 81.9853 8.44938C81.9048 8.25388 81.807 8.10438 81.692 8.00088C81.577 7.88588 81.4448 7.80538 81.2953 7.75938C81.1458 7.70188 80.979 7.67313 80.795 7.67313C80.6225 7.66163 80.4328 7.65588 80.2258 7.65588C79.8233 7.66738 79.4438 7.77663 79.0873 7.98363C78.7308 8.17913 78.4203 8.45513 78.1558 8.81163C77.9028 9.15663 77.7015 9.57063 77.552 10.0536C77.4025 10.5366 77.3278 11.0656 77.3278 11.6406C77.3278 12.1006 77.3738 12.6009 77.4658 13.1414C77.5693 13.6819 77.7245 14.1821 77.9315 14.6421C78.1385 15.1021 78.3973 15.4874 78.7078 15.7979C79.0298 16.1084 79.415 16.2636 79.8635 16.2636C80.266 16.2636 80.6743 16.1659 81.0883 15.9704C81.5138 15.7749 81.8645 15.5391 82.1405 15.2631C82.1405 15.3781 82.129 15.4759 82.106 15.5564C82.083 15.6369 82.0715 15.7404 82.0715 15.8669C82.0715 15.9589 82.083 16.0394 82.106 16.1084C82.1405 16.1774 82.198 16.2234 82.2785 16.2464C82.405 16.2464 82.5258 16.2406 82.6408 16.2291C82.7673 16.2061 82.8938 16.1946 83.0203 16.1946C83.2043 16.1946 83.3883 16.2061 83.5723 16.2291C83.7678 16.2406 83.9575 16.2464 84.1415 16.2464H84.3485C84.4865 16.2234 84.5555 16.1371 84.5555 15.9876C84.567 15.8381 84.5728 15.6886 84.5728 15.5391C84.6533 14.3086 84.6705 13.0954 84.6245 11.8994C84.5785 10.6919 84.5728 9.46713 84.6073 8.22513V8.05263C84.6073 7.98363 84.6015 7.91463 84.59 7.84563C84.59 7.77663 84.5843 7.70763 84.5728 7.63863ZM79.553 11.0714C79.6105 10.7839 79.7715 10.5309 80.036 10.3124C80.312 10.0824 80.6858 9.96738 81.1573 9.96738C81.3988 9.96738 81.577 9.98463 81.692 10.0191C81.8185 10.0536 81.9048 10.1341 81.9508 10.2606C82.0083 10.3871 82.037 10.5711 82.037 10.8126C82.0485 11.0426 82.0543 11.3589 82.0543 11.7614C82.0543 12.0834 82.0485 12.3766 82.037 12.6411C82.037 12.8941 82.0025 13.1126 81.9335 13.2966C81.876 13.4691 81.7725 13.6071 81.623 13.7106C81.485 13.8026 81.2723 13.8486 80.9848 13.8486C80.5018 13.8486 80.1223 13.6704 79.8463 13.3139C79.5818 12.9459 79.4495 12.5031 79.4495 11.9856C79.4495 11.8361 79.4553 11.6866 79.4668 11.5371C79.4783 11.3761 79.507 11.2209 79.553 11.0714ZM88.0846 8.53563C88.0846 8.48963 88.0846 8.34588 88.0846 8.10438C88.0846 7.86288 88.0846 7.57538 88.0846 7.24188C88.0846 6.90838 88.0846 6.55188 88.0846 6.17238C88.0846 5.78138 88.0846 5.41913 88.0846 5.08563C88.0846 4.74063 88.0846 4.44738 88.0846 4.20588C88.0846 3.95288 88.0789 3.79763 88.0674 3.74013C88.0674 3.70563 88.0214 3.68837 87.9294 3.68837C87.8374 3.67688 87.7339 3.67688 87.6189 3.68837C87.5039 3.69988 87.3889 3.71713 87.2739 3.74013C87.1589 3.75163 87.0784 3.75738 87.0324 3.75738C86.8944 3.76887 86.7794 3.78038 86.6874 3.79188C86.5954 3.79188 86.5091 3.79188 86.4286 3.79188C86.3481 3.79188 86.2619 3.79188 86.1699 3.79188C86.0779 3.78038 85.9629 3.76887 85.8249 3.75738C85.8134 4.26338 85.8019 4.86138 85.7904 5.55138C85.7904 6.22988 85.7904 6.95438 85.7904 7.72488C85.7904 8.49538 85.7904 9.28888 85.7904 10.1054C85.7904 10.9104 85.7904 11.6924 85.7904 12.4514C85.8019 13.2104 85.8076 13.9234 85.8076 14.5904C85.8191 15.2459 85.8249 15.8094 85.8249 16.2809C86.1009 16.2579 86.3309 16.2521 86.5149 16.2636C86.6989 16.2751 86.8656 16.2809 87.0151 16.2809C87.1646 16.2924 87.3084 16.2924 87.4464 16.2809C87.5959 16.2694 87.7684 16.2349 87.9639 16.1774V16.1084C88.0099 15.7289 88.0329 15.3494 88.0329 14.9699C88.0329 14.5904 88.0214 14.2109 87.9984 13.8314C87.9869 13.4404 87.9754 13.0551 87.9639 12.6756C87.9524 12.2846 87.9581 11.8879 87.9811 11.4854C88.0041 11.1749 88.0846 10.9449 88.2226 10.7954C88.3606 10.6344 88.5159 10.5309 88.6884 10.4849C88.8609 10.4274 89.0334 10.4159 89.2059 10.4504C89.3899 10.4734 89.5279 10.5079 89.6199 10.5539C89.6314 10.5654 89.6429 10.5711 89.6544 10.5711C89.6659 10.5711 89.6774 10.5769 89.6889 10.5884C89.7809 10.6574 89.8499 10.7551 89.8959 10.8816C89.9534 11.0081 89.9936 11.1519 90.0166 11.3129C90.0511 11.4739 90.0741 11.6406 90.0856 11.8131C90.0971 11.9741 90.1086 12.1236 90.1201 12.2616C90.1431 12.5721 90.1546 12.9056 90.1546 13.2621C90.1661 13.6186 90.1661 13.9751 90.1546 14.3316C90.1546 14.6881 90.1546 15.0331 90.1546 15.3666C90.1546 15.7001 90.1661 15.9991 90.1891 16.2636C90.5916 16.2636 90.9481 16.2636 91.2586 16.2636C91.5806 16.2751 91.9429 16.2521 92.3454 16.1946C92.3224 15.8036 92.3166 15.3494 92.3281 14.8319C92.3396 14.3144 92.3511 13.7796 92.3626 13.2276C92.3741 12.6641 92.3799 12.1121 92.3799 11.5716C92.3914 11.0196 92.3856 10.5136 92.3626 10.0536C92.3511 9.59363 92.3109 9.20263 92.2419 8.88063C92.1844 8.54713 92.0981 8.32863 91.9831 8.22513C91.7416 8.01813 91.4714 7.87438 91.1724 7.79388C90.8734 7.71338 90.5629 7.67888 90.2409 7.69038C89.9304 7.70188 89.6256 7.75938 89.3266 7.86288C89.0276 7.96638 88.7574 8.10438 88.5159 8.27688C88.4584 8.32288 88.3836 8.36888 88.2916 8.41488C88.2111 8.46088 88.1421 8.50113 88.0846 8.53563ZM95.834 8.53563C95.8225 8.37463 95.8168 8.23088 95.8168 8.10438C95.8283 7.97788 95.8225 7.81688 95.7995 7.62138C95.7995 7.58688 95.7535 7.56963 95.6615 7.56963C95.5695 7.55813 95.466 7.55813 95.351 7.56963C95.236 7.58113 95.121 7.59838 95.006 7.62138C94.891 7.63288 94.8105 7.63863 94.7645 7.63863C94.6265 7.65013 94.5115 7.66163 94.4195 7.67313C94.3275 7.67313 94.2413 7.67313 94.1608 7.67313C94.0803 7.67313 93.994 7.67313 93.902 7.67313C93.81 7.66163 93.695 7.65013 93.557 7.63863C93.511 9.15663 93.4995 10.6229 93.5225 12.0374C93.557 13.4519 93.5743 14.8664 93.5743 16.2809C93.8503 16.2579 94.0803 16.2521 94.2643 16.2636C94.4483 16.2751 94.615 16.2809 94.7645 16.2809C94.914 16.2924 95.0578 16.2924 95.1958 16.2809C95.3453 16.2694 95.5178 16.2349 95.7133 16.1774V16.1084C95.7593 15.7289 95.7823 15.3494 95.7823 14.9699C95.7823 14.5904 95.7708 14.2109 95.7478 13.8314C95.7363 13.4404 95.7248 13.0551 95.7133 12.6756C95.7018 12.2846 95.7075 11.8879 95.7305 11.4854C95.7535 11.1749 95.834 10.9449 95.972 10.7954C96.11 10.6344 96.2653 10.5309 96.4378 10.4849C96.6103 10.4274 96.7828 10.4159 96.9553 10.4504C97.1393 10.4734 97.2773 10.5079 97.3693 10.5539C97.3808 10.5654 97.3923 10.5711 97.4038 10.5711C97.4153 10.5711 97.4268 10.5769 97.4383 10.5884C97.5303 10.6574 97.5993 10.7551 97.6453 10.8816C97.7028 11.0081 97.743 11.1519 97.766 11.3129C97.8005 11.4739 97.8235 11.6406 97.835 11.8131C97.8465 11.9741 97.858 12.1236 97.8695 12.2616C97.8925 12.5721 97.904 12.9056 97.904 13.2621C97.9155 13.6186 97.9155 13.9751 97.904 14.3316C97.904 14.6881 97.904 15.0331 97.904 15.3666C97.904 15.7001 97.9155 15.9991 97.9385 16.2636C98.341 16.2636 98.6975 16.2636 99.008 16.2636C99.33 16.2751 99.6923 16.2521 100.095 16.1946C100.072 15.8496 100.06 15.4529 100.06 15.0044C100.072 14.5444 100.083 14.0729 100.095 13.5899C100.106 13.0954 100.118 12.6009 100.129 12.1064C100.141 11.6004 100.141 11.1231 100.129 10.6746C100.233 10.5941 100.342 10.5366 100.457 10.5021C100.584 10.4561 100.704 10.4331 100.819 10.4331C100.946 10.4331 101.061 10.4446 101.164 10.4676C101.268 10.4906 101.354 10.5194 101.423 10.5539C101.435 10.5654 101.446 10.5711 101.458 10.5711C101.469 10.5711 101.481 10.5769 101.492 10.5884C101.584 10.6574 101.653 10.7551 101.699 10.8816C101.757 11.0081 101.797 11.1519 101.82 11.3129C101.854 11.4739 101.877 11.6406 101.889 11.8131C101.9 11.9741 101.912 12.1236 101.923 12.2616C101.946 12.5721 101.958 12.9056 101.958 13.2621C101.969 13.6186 101.969 13.9751 101.958 14.3316C101.958 14.6881 101.958 15.0331 101.958 15.3666C101.958 15.7001 101.969 15.9991 101.992 16.2636C102.395 16.2636 102.751 16.2636 103.062 16.2636C103.384 16.2751 103.746 16.2521 104.149 16.1946C104.126 15.8036 104.12 15.3494 104.131 14.8319C104.143 14.3144 104.154 13.7796 104.166 13.2276C104.177 12.6641 104.183 12.1121 104.183 11.5716C104.195 11.0196 104.189 10.5136 104.166 10.0536C104.154 9.59363 104.114 9.20263 104.045 8.88063C103.988 8.54713 103.901 8.32863 103.786 8.22513C103.545 8.01813 103.275 7.87438 102.976 7.79388C102.677 7.71338 102.366 7.67888 102.044 7.69038C101.734 7.70188 101.429 7.75938 101.13 7.86288C100.831 7.96638 100.561 8.10438 100.319 8.27688C100.262 8.32288 100.193 8.36888 100.112 8.41488C100.032 8.44938 99.9625 8.48388 99.905 8.51838C99.8475 8.38038 99.79 8.28263 99.7325 8.22513C99.491 8.01813 99.2208 7.87438 98.9218 7.79388C98.6228 7.71338 98.3123 7.67888 97.9903 7.69038C97.6798 7.70188 97.375 7.75938 97.076 7.86288C96.777 7.96638 96.5068 8.10438 96.2653 8.27688C96.2078 8.32288 96.133 8.36888 96.041 8.41488C95.9605 8.46088 95.8915 8.50113 95.834 8.53563ZM112.301 7.63863C111.933 7.61563 111.605 7.59838 111.318 7.58688C111.042 7.57538 110.806 7.56388 110.61 7.55238C110.576 7.55238 110.513 7.55238 110.421 7.55238C110.329 7.55238 110.237 7.55238 110.145 7.55238C110.053 7.54088 109.966 7.54088 109.886 7.55238C109.817 7.55238 109.782 7.55813 109.782 7.56963C109.782 7.70763 109.765 7.84563 109.731 7.98363C109.708 8.11013 109.702 8.26538 109.713 8.44938C109.633 8.25388 109.535 8.10438 109.42 8.00088C109.305 7.88588 109.173 7.80538 109.023 7.75938C108.874 7.70188 108.707 7.67313 108.523 7.67313C108.351 7.66163 108.161 7.65588 107.954 7.65588C107.551 7.66738 107.172 7.77663 106.815 7.98363C106.459 8.17913 106.148 8.45513 105.884 8.81163C105.631 9.15663 105.43 9.57063 105.28 10.0536C105.131 10.5366 105.056 11.0656 105.056 11.6406C105.056 12.1006 105.102 12.6009 105.194 13.1414C105.297 13.6819 105.453 14.1821 105.66 14.6421C105.867 15.1021 106.125 15.4874 106.436 15.7979C106.758 16.1084 107.143 16.2636 107.592 16.2636C107.994 16.2636 108.402 16.1659 108.816 15.9704C109.242 15.7749 109.593 15.5391 109.869 15.2631C109.869 15.3781 109.857 15.4759 109.834 15.5564C109.811 15.6369 109.8 15.7404 109.8 15.8669C109.8 15.9589 109.811 16.0394 109.834 16.1084C109.869 16.1774 109.926 16.2234 110.007 16.2464C110.133 16.2464 110.254 16.2406 110.369 16.2291C110.495 16.2061 110.622 16.1946 110.748 16.1946C110.932 16.1946 111.116 16.2061 111.3 16.2291C111.496 16.2406 111.686 16.2464 111.87 16.2464H112.077C112.215 16.2234 112.284 16.1371 112.284 15.9876C112.295 15.8381 112.301 15.6886 112.301 15.5391C112.381 14.3086 112.399 13.0954 112.353 11.8994C112.307 10.6919 112.301 9.46713 112.335 8.22513V8.05263C112.335 7.98363 112.33 7.91463 112.318 7.84563C112.318 7.77663 112.312 7.70763 112.301 7.63863ZM107.281 11.0714C107.339 10.7839 107.5 10.5309 107.764 10.3124C108.04 10.0824 108.414 9.96738 108.885 9.96738C109.127 9.96738 109.305 9.98463 109.42 10.0191C109.547 10.0536 109.633 10.1341 109.679 10.2606C109.736 10.3871 109.765 10.5711 109.765 10.8126C109.777 11.0426 109.782 11.3589 109.782 11.7614C109.782 12.0834 109.777 12.3766 109.765 12.6411C109.765 12.8941 109.731 13.1126 109.662 13.2966C109.604 13.4691 109.501 13.6071 109.351 13.7106C109.213 13.8026 109 13.8486 108.713 13.8486C108.23 13.8486 107.85 13.6704 107.574 13.3139C107.31 12.9459 107.178 12.5031 107.178 11.9856C107.178 11.8361 107.183 11.6866 107.195 11.5371C107.206 11.3761 107.235 11.2209 107.281 11.0714ZM118.055 4.29213C118.044 4.52213 118.032 4.70038 118.021 4.82688C118.021 4.94188 118.015 5.05113 118.003 5.15463C118.003 5.24663 117.998 5.35013 117.986 5.46513C117.986 5.56863 117.986 5.72388 117.986 5.93088C117.986 6.12638 117.986 6.39088 117.986 6.72438C117.986 7.05788 117.992 7.49488 118.003 8.03538C117.98 7.93188 117.854 7.83988 117.624 7.75938C117.394 7.67888 117.112 7.62713 116.779 7.60413C116.445 7.56963 116.089 7.56963 115.709 7.60413C115.341 7.62713 115.002 7.69613 114.691 7.81113C114.438 7.90313 114.22 8.06413 114.036 8.29413C113.863 8.51263 113.72 8.78288 113.605 9.10488C113.501 9.41538 113.421 9.76038 113.363 10.1399C113.317 10.5194 113.294 10.9104 113.294 11.3129C113.306 11.8879 113.34 12.4571 113.398 13.0206C113.467 13.5841 113.593 14.0959 113.777 14.5559C113.973 15.0044 114.26 15.3781 114.64 15.6771C115.019 15.9646 115.537 16.1314 116.192 16.1774C116.514 16.2234 116.819 16.2004 117.106 16.1084C117.394 16.0049 117.624 15.7806 117.796 15.4356C117.831 15.3666 117.86 15.3494 117.883 15.3839C117.917 15.4069 117.946 15.4471 117.969 15.5046C117.969 15.6311 117.969 15.7289 117.969 15.7979C117.98 15.8669 117.986 15.9589 117.986 16.0739C117.986 16.1314 117.992 16.1716 118.003 16.1946C118.348 16.2406 118.734 16.2521 119.159 16.2291C119.585 16.2176 119.976 16.2119 120.332 16.2119C120.378 14.5559 120.372 12.7906 120.315 10.9161C120.257 9.04163 120.229 7.14413 120.229 5.22363V4.08513C120.045 4.05063 119.826 4.03338 119.573 4.03338C119.32 4.02188 119.079 4.02188 118.849 4.03338C118.63 4.03338 118.44 4.04488 118.279 4.06788C118.13 4.07938 118.055 4.09088 118.055 4.10238V4.29213ZM115.381 10.7954C115.439 10.3929 115.606 10.0881 115.882 9.88113C116.169 9.67413 116.549 9.57063 117.02 9.57063C117.262 9.57063 117.451 9.59363 117.589 9.63963C117.739 9.67413 117.848 9.76038 117.917 9.89838C117.986 10.0364 118.026 10.2376 118.038 10.5021C118.061 10.7551 118.072 11.1059 118.072 11.5544C118.072 11.9224 118.061 12.2616 118.038 12.5721C118.026 12.8711 117.975 13.1299 117.883 13.3484C117.802 13.5669 117.676 13.7394 117.503 13.8659C117.342 13.9924 117.118 14.0556 116.83 14.0556C116.589 14.0556 116.37 13.9924 116.175 13.8659C115.979 13.7394 115.813 13.5726 115.675 13.3656C115.537 13.1471 115.433 12.9056 115.364 12.6411C115.295 12.3651 115.261 12.0834 115.261 11.7959C115.261 11.6349 115.266 11.4681 115.278 11.2956C115.289 11.1231 115.324 10.9564 115.381 10.7954ZM124.643 10.0881C124.999 10.0996 125.373 10.1169 125.764 10.1399C126.166 10.1629 126.661 10.1916 127.247 10.2261C127.27 10.0076 127.288 9.83513 127.299 9.70863C127.311 9.58213 127.316 9.47863 127.316 9.39813C127.328 9.31763 127.334 9.24288 127.334 9.17388C127.334 9.09338 127.334 8.98988 127.334 8.86338C127.345 8.70238 127.345 8.56438 127.334 8.44938C127.322 8.32288 127.328 8.19638 127.351 8.06988H124.712C124.654 7.78238 124.654 7.52938 124.712 7.31088C124.781 7.08088 124.947 6.94288 125.212 6.89688C125.373 6.87388 125.551 6.85088 125.747 6.82788C125.942 6.79338 126.138 6.76463 126.333 6.74163C126.529 6.71863 126.713 6.70138 126.885 6.68988C127.069 6.67838 127.23 6.67838 127.368 6.68988C127.391 6.52888 127.414 6.35063 127.437 6.15513C127.46 5.95963 127.477 5.75838 127.489 5.55138C127.5 5.34438 127.495 5.13738 127.472 4.93038C127.46 4.72338 127.426 4.53363 127.368 4.36113C126.828 4.33813 126.27 4.34963 125.695 4.39563C125.131 4.43013 124.608 4.52788 124.125 4.68888C123.734 4.81538 123.418 5.01088 123.176 5.27538C122.935 5.52838 122.745 5.81588 122.607 6.13788C122.481 6.44838 122.4 6.77038 122.366 7.10388C122.331 7.43738 122.325 7.74788 122.348 8.03538C122.164 8.02388 121.969 8.01813 121.762 8.01813C121.566 8.01813 121.348 8.01813 121.106 8.01813L121.158 10.1226C121.388 10.1111 121.601 10.1054 121.796 10.1054C122.003 10.1054 122.199 10.1054 122.383 10.1054C122.383 10.2779 122.377 10.5251 122.366 10.8471C122.366 11.1691 122.36 11.5371 122.348 11.9511C122.348 12.3536 122.348 12.7734 122.348 13.2104C122.348 13.6474 122.348 14.0671 122.348 14.4696C122.36 14.8606 122.366 15.2171 122.366 15.5391C122.377 15.8496 122.394 16.0739 122.417 16.2119C122.567 16.2349 122.728 16.2406 122.9 16.2291C123.084 16.2176 123.274 16.2061 123.47 16.1946C123.665 16.1716 123.861 16.1544 124.056 16.1429C124.252 16.1314 124.447 16.1371 124.643 16.1601V13.8486V10.0881ZM134.958 7.63863C134.59 7.61563 134.262 7.59838 133.975 7.58688C133.699 7.57538 133.463 7.56388 133.268 7.55238C133.233 7.55238 133.17 7.55238 133.078 7.55238C132.986 7.55238 132.894 7.55238 132.802 7.55238C132.71 7.54088 132.624 7.54088 132.543 7.55238C132.474 7.55238 132.44 7.55813 132.44 7.56963C132.44 7.70763 132.422 7.84563 132.388 7.98363C132.365 8.11013 132.359 8.26538 132.371 8.44938C132.29 8.25388 132.192 8.10438 132.077 8.00088C131.962 7.88588 131.83 7.80538 131.681 7.75938C131.531 7.70188 131.364 7.67313 131.18 7.67313C131.008 7.66163 130.818 7.65588 130.611 7.65588C130.209 7.66738 129.829 7.77663 129.473 7.98363C129.116 8.17913 128.806 8.45513 128.541 8.81163C128.288 9.15663 128.087 9.57063 127.937 10.0536C127.788 10.5366 127.713 11.0656 127.713 11.6406C127.713 12.1006 127.759 12.6009 127.851 13.1414C127.955 13.6819 128.11 14.1821 128.317 14.6421C128.524 15.1021 128.783 15.4874 129.093 15.7979C129.415 16.1084 129.8 16.2636 130.249 16.2636C130.651 16.2636 131.06 16.1659 131.474 15.9704C131.899 15.7749 132.25 15.5391 132.526 15.2631C132.526 15.3781 132.514 15.4759 132.491 15.5564C132.468 15.6369 132.457 15.7404 132.457 15.8669C132.457 15.9589 132.468 16.0394 132.491 16.1084C132.526 16.1774 132.583 16.2234 132.664 16.2464C132.79 16.2464 132.911 16.2406 133.026 16.2291C133.153 16.2061 133.279 16.1946 133.406 16.1946C133.59 16.1946 133.774 16.2061 133.958 16.2291C134.153 16.2406 134.343 16.2464 134.527 16.2464H134.734C134.872 16.2234 134.941 16.1371 134.941 15.9876C134.952 15.8381 134.958 15.6886 134.958 15.5391C135.039 14.3086 135.056 13.0954 135.01 11.8994C134.964 10.6919 134.958 9.46713 134.993 8.22513V8.05263C134.993 7.98363 134.987 7.91463 134.975 7.84563C134.975 7.77663 134.97 7.70763 134.958 7.63863ZM129.938 11.0714C129.996 10.7839 130.157 10.5309 130.421 10.3124C130.697 10.0824 131.071 9.96738 131.543 9.96738C131.784 9.96738 131.962 9.98463 132.077 10.0191C132.204 10.0536 132.29 10.1341 132.336 10.2606C132.394 10.3871 132.422 10.5711 132.422 10.8126C132.434 11.0426 132.44 11.3589 132.44 11.7614C132.44 12.0834 132.434 12.3766 132.422 12.6411C132.422 12.8941 132.388 13.1126 132.319 13.2966C132.261 13.4691 132.158 13.6071 132.008 13.7106C131.87 13.8026 131.658 13.8486 131.37 13.8486C130.887 13.8486 130.508 13.6704 130.232 13.3139C129.967 12.9459 129.835 12.5031 129.835 11.9856C129.835 11.8361 129.841 11.6866 129.852 11.5371C129.864 11.3761 129.892 11.2209 129.938 11.0714ZM139.298 4.43013C139.103 4.45313 138.907 4.45888 138.712 4.44738C138.516 4.43588 138.321 4.42438 138.125 4.41287C137.93 4.38988 137.74 4.37263 137.556 4.36113C137.383 4.34963 137.222 4.35538 137.073 4.37838C137.05 4.59688 137.033 4.84413 137.021 5.12013C137.021 5.39613 137.021 5.68363 137.021 5.98263C137.021 6.28163 137.027 6.58063 137.038 6.87963C137.05 7.16713 137.056 7.43738 137.056 7.69038C136.872 7.69038 136.676 7.69038 136.469 7.69038C136.274 7.69038 136.061 7.68463 135.831 7.67313L135.779 9.77763C136.021 9.77763 136.239 9.77763 136.435 9.77763C136.642 9.77763 136.837 9.77188 137.021 9.76038C137.01 10.5999 137.015 11.4164 137.038 12.2099C137.061 12.9919 137.148 13.8256 137.297 14.7111C137.447 15.0676 137.688 15.3494 138.022 15.5564C138.367 15.7634 138.758 15.9186 139.195 16.0221C139.632 16.1256 140.097 16.1946 140.592 16.2291C141.086 16.2521 141.564 16.2521 142.024 16.2291C142.081 16.0566 142.116 15.8669 142.127 15.6599C142.15 15.4529 142.156 15.2459 142.144 15.0389C142.133 14.8319 142.116 14.6306 142.093 14.4351C142.07 14.2396 142.047 14.0614 142.024 13.9004C141.828 13.9119 141.598 13.9119 141.334 13.9004C141.081 13.8889 140.828 13.8601 140.575 13.8141C140.322 13.7566 140.086 13.6819 139.867 13.5899C139.649 13.4979 139.482 13.3714 139.367 13.2104C139.356 12.6929 139.35 12.1409 139.35 11.5544C139.35 10.9564 139.35 10.3469 139.35 9.72588H142.024C142.001 9.57638 141.995 9.39813 142.006 9.19113C142.029 8.97263 142.047 8.75988 142.058 8.55288C142.07 8.34588 142.07 8.15613 142.058 7.98363C142.047 7.79963 142.001 7.66163 141.92 7.56963C141.334 7.60413 140.839 7.63288 140.437 7.65588C140.046 7.67888 139.672 7.69613 139.315 7.70763C139.315 7.53513 139.31 7.36838 139.298 7.20738C139.298 7.04638 139.298 6.89113 139.298 6.74163V4.43013ZM144.986 7.55238C144.618 7.56388 144.302 7.56388 144.037 7.55238C143.773 7.54088 143.566 7.52938 143.416 7.51788C143.359 7.51788 143.272 7.51213 143.157 7.50063C143.054 7.48913 142.979 7.48913 142.933 7.50063V7.51788C142.864 8.19638 142.83 8.89788 142.83 9.62238C142.83 10.3354 142.841 11.0599 142.864 11.7959C142.887 12.5319 142.899 13.2736 142.899 14.0211C142.91 14.7686 142.887 15.5046 142.83 16.2291C142.91 16.2061 143.071 16.2004 143.313 16.2119C143.554 16.2234 143.807 16.2291 144.072 16.2291C144.348 16.2406 144.601 16.2406 144.831 16.2291C145.061 16.2291 145.204 16.1946 145.262 16.1256C145.181 14.7341 145.158 13.3139 145.193 11.8649C145.239 10.4159 145.268 8.99563 145.279 7.60413V7.55238H144.986ZM142.864 3.79188C142.853 4.32088 142.858 4.76938 142.881 5.13738C142.916 5.49388 142.933 5.83888 142.933 6.17238C143.152 6.16088 143.387 6.16663 143.64 6.18963C143.893 6.20113 144.129 6.21263 144.348 6.22413C144.578 6.22413 144.773 6.21263 144.934 6.18963C145.107 6.16663 145.216 6.12063 145.262 6.05163C145.262 5.87913 145.256 5.68363 145.245 5.46513C145.245 5.23513 145.239 5.01663 145.227 4.80962C145.227 4.59113 145.222 4.39563 145.21 4.22313C145.21 4.03913 145.21 3.91263 145.21 3.84363L142.864 3.79188ZM148.712 8.53563C148.712 8.48963 148.712 8.34588 148.712 8.10438C148.712 7.86288 148.712 7.57538 148.712 7.24188C148.712 6.90838 148.712 6.55188 148.712 6.17238C148.712 5.78138 148.712 5.41913 148.712 5.08563C148.712 4.74063 148.712 4.44738 148.712 4.20588C148.712 3.95288 148.707 3.79763 148.695 3.74013C148.695 3.70563 148.649 3.68837 148.557 3.68837C148.465 3.67688 148.362 3.67688 148.247 3.68837C148.132 3.69988 148.017 3.71713 147.902 3.74013C147.787 3.75163 147.706 3.75738 147.66 3.75738C147.522 3.76887 147.407 3.78038 147.315 3.79188C147.223 3.79188 147.137 3.79188 147.056 3.79188C146.976 3.79188 146.89 3.79188 146.798 3.79188C146.706 3.78038 146.591 3.76887 146.453 3.75738C146.441 4.26338 146.43 4.86138 146.418 5.55138C146.418 6.22988 146.418 6.95438 146.418 7.72488C146.418 8.49538 146.418 9.28888 146.418 10.1054C146.418 10.9104 146.418 11.6924 146.418 12.4514C146.43 13.2104 146.435 13.9234 146.435 14.5904C146.447 15.2459 146.453 15.8094 146.453 16.2809C146.729 16.2579 146.959 16.2521 147.143 16.2636C147.327 16.2751 147.493 16.2809 147.643 16.2809C147.792 16.2924 147.936 16.2924 148.074 16.2809C148.224 16.2694 148.396 16.2349 148.592 16.1774V16.1084C148.638 15.7289 148.661 15.3494 148.661 14.9699C148.661 14.5904 148.649 14.2109 148.626 13.8314C148.615 13.4404 148.603 13.0551 148.592 12.6756C148.58 12.2846 148.586 11.8879 148.609 11.4854C148.632 11.1749 148.712 10.9449 148.85 10.7954C148.988 10.6344 149.144 10.5309 149.316 10.4849C149.489 10.4274 149.661 10.4159 149.834 10.4504C150.018 10.4734 150.156 10.5079 150.248 10.5539C150.259 10.5654 150.271 10.5711 150.282 10.5711C150.294 10.5711 150.305 10.5769 150.317 10.5884C150.409 10.6574 150.478 10.7551 150.524 10.8816C150.581 11.0081 150.621 11.1519 150.644 11.3129C150.679 11.4739 150.702 11.6406 150.713 11.8131C150.725 11.9741 150.736 12.1236 150.748 12.2616C150.771 12.5721 150.782 12.9056 150.782 13.2621C150.794 13.6186 150.794 13.9751 150.782 14.3316C150.782 14.6881 150.782 15.0331 150.782 15.3666C150.782 15.7001 150.794 15.9991 150.817 16.2636C151.219 16.2636 151.576 16.2636 151.886 16.2636C152.208 16.2751 152.571 16.2521 152.973 16.1946C152.95 15.8036 152.944 15.3494 152.956 14.8319C152.967 14.3144 152.979 13.7796 152.99 13.2276C153.002 12.6641 153.008 12.1121 153.008 11.5716C153.019 11.0196 153.013 10.5136 152.99 10.0536C152.979 9.59363 152.939 9.20263 152.87 8.88063C152.812 8.54713 152.726 8.32863 152.611 8.22513C152.369 8.01813 152.099 7.87438 151.8 7.79388C151.501 7.71338 151.191 7.67888 150.869 7.69038C150.558 7.70188 150.253 7.75938 149.954 7.86288C149.655 7.96638 149.385 8.10438 149.144 8.27688C149.086 8.32288 149.011 8.36888 148.919 8.41488C148.839 8.46088 148.77 8.50113 148.712 8.53563ZM156.289 7.55238C155.921 7.56388 155.605 7.56388 155.34 7.55238C155.076 7.54088 154.869 7.52938 154.719 7.51788C154.662 7.51788 154.576 7.51213 154.461 7.50063C154.357 7.48913 154.282 7.48913 154.236 7.50063V7.51788C154.167 8.19638 154.133 8.89788 154.133 9.62238C154.133 10.3354 154.144 11.0599 154.167 11.7959C154.19 12.5319 154.202 13.2736 154.202 14.0211C154.213 14.7686 154.19 15.5046 154.133 16.2291C154.213 16.2061 154.374 16.2004 154.616 16.2119C154.857 16.2234 155.11 16.2291 155.375 16.2291C155.651 16.2406 155.904 16.2406 156.134 16.2291C156.364 16.2291 156.508 16.1946 156.565 16.1256C156.485 14.7341 156.462 13.3139 156.496 11.8649C156.542 10.4159 156.571 8.99563 156.582 7.60413V7.55238H156.289ZM154.167 3.79188C154.156 4.32088 154.162 4.76938 154.185 5.13738C154.219 5.49388 154.236 5.83888 154.236 6.17238C154.455 6.16088 154.691 6.16663 154.944 6.18963C155.197 6.20113 155.432 6.21263 155.651 6.22413C155.881 6.22413 156.076 6.21263 156.237 6.18963C156.41 6.16663 156.519 6.12063 156.565 6.05163C156.565 5.87913 156.559 5.68363 156.548 5.46513C156.548 5.23513 156.542 5.01663 156.531 4.80962C156.531 4.59113 156.525 4.39563 156.513 4.22313C156.513 4.03913 156.513 3.91263 156.513 3.84363L154.167 3.79188ZM160.05 8.53563C160.039 8.37463 160.033 8.23088 160.033 8.10438C160.045 7.97788 160.039 7.81688 160.016 7.62138C160.016 7.58688 159.97 7.56963 159.878 7.56963C159.786 7.55813 159.682 7.55813 159.567 7.56963C159.452 7.58113 159.337 7.59838 159.222 7.62138C159.107 7.63288 159.027 7.63863 158.981 7.63863C158.843 7.65013 158.728 7.66163 158.636 7.67313C158.544 7.67313 158.458 7.67313 158.377 7.67313C158.297 7.67313 158.21 7.67313 158.118 7.67313C158.026 7.66163 157.911 7.65013 157.773 7.63863C157.727 9.15663 157.716 10.6229 157.739 12.0374C157.773 13.4519 157.791 14.8664 157.791 16.2809C158.067 16.2579 158.297 16.2521 158.481 16.2636C158.665 16.2751 158.831 16.2809 158.981 16.2809C159.13 16.2924 159.274 16.2924 159.412 16.2809C159.562 16.2694 159.734 16.2349 159.93 16.1774V16.1084C159.976 15.7289 159.999 15.3494 159.999 14.9699C159.999 14.5904 159.987 14.2109 159.964 13.8314C159.953 13.4404 159.941 13.0551 159.93 12.6756C159.918 12.2846 159.924 11.8879 159.947 11.4854C159.97 11.1749 160.05 10.9449 160.188 10.7954C160.326 10.6344 160.482 10.5309 160.654 10.4849C160.827 10.4274 160.999 10.4159 161.172 10.4504C161.356 10.4734 161.494 10.5079 161.586 10.5539C161.597 10.5654 161.609 10.5711 161.62 10.5711C161.632 10.5711 161.643 10.5769 161.655 10.5884C161.747 10.6574 161.816 10.7551 161.862 10.8816C161.919 11.0081 161.959 11.1519 161.982 11.3129C162.017 11.4739 162.04 11.6406 162.051 11.8131C162.063 11.9741 162.074 12.1236 162.086 12.2616C162.109 12.5721 162.12 12.9056 162.12 13.2621C162.132 13.6186 162.132 13.9751 162.12 14.3316C162.12 14.6881 162.12 15.0331 162.12 15.3666C162.12 15.7001 162.132 15.9991 162.155 16.2636C162.557 16.2636 162.914 16.2636 163.224 16.2636C163.546 16.2751 163.909 16.2521 164.311 16.1946C164.288 15.8036 164.282 15.3494 164.294 14.8319C164.305 14.3144 164.317 13.7796 164.328 13.2276C164.34 12.6641 164.346 12.1121 164.346 11.5716C164.357 11.0196 164.351 10.5136 164.328 10.0536C164.317 9.59363 164.277 9.20263 164.208 8.88063C164.15 8.54713 164.064 8.32863 163.949 8.22513C163.707 8.01813 163.437 7.87438 163.138 7.79388C162.839 7.71338 162.529 7.67888 162.207 7.69038C161.896 7.70188 161.591 7.75938 161.292 7.86288C160.993 7.96638 160.723 8.10438 160.482 8.27688C160.424 8.32288 160.349 8.36888 160.257 8.41488C160.177 8.46088 160.108 8.50113 160.05 8.53563Z" fill="black"/>
<path d="M7.26225 12.688C7.13575 12.6535 6.97475 12.6362 6.77925 12.6362C6.58375 12.6247 6.37675 12.6247 6.15825 12.6362C5.93975 12.6477 5.73275 12.6592 5.53725 12.6707C5.34175 12.6707 5.1865 12.665 5.0715 12.6535C5.037 12.803 4.98525 12.9755 4.91625 13.171C4.85875 13.355 4.7725 13.4872 4.6575 13.5677C4.5195 13.6597 4.3355 13.723 4.1055 13.7575C3.8755 13.7805 3.65125 13.769 3.43275 13.723C3.21425 13.6655 3.0245 13.562 2.8635 13.4125C2.714 13.263 2.65075 13.056 2.67375 12.7915C2.69675 12.389 2.70825 12.0037 2.70825 11.6357C2.70825 11.2677 2.73125 10.9055 2.77725 10.549C2.81175 10.365 2.8635 10.25 2.9325 10.204C3.082 10.02 3.2775 9.8935 3.519 9.8245C3.9675 9.7095 4.32975 9.767 4.60575 9.997C4.88175 10.2155 5.0485 10.526 5.106 10.9285C5.2555 10.9515 5.42225 10.9745 5.60625 10.9975C5.80175 11.0205 5.99725 11.0377 6.19275 11.0492C6.39975 11.0607 6.59525 11.0665 6.77925 11.0665C6.97475 11.0665 7.14725 11.0492 7.29675 11.0147C7.28525 10.6352 7.27375 10.2845 7.26225 9.9625C7.26225 9.629 7.23925 9.33 7.19325 9.0655C7.14725 8.801 7.07825 8.571 6.98625 8.3755C6.90575 8.18 6.785 8.02475 6.624 7.90975C6.3825 7.67975 6.095 7.50725 5.7615 7.39225C5.428 7.27725 5.07725 7.20825 4.70925 7.18525C4.46775 7.16225 4.23775 7.16225 4.01925 7.18525C3.81225 7.19675 3.59375 7.191 3.36375 7.168C3.08775 7.168 2.81175 7.18525 2.53575 7.21975C2.27125 7.25425 2.01825 7.3175 1.77675 7.4095C1.54675 7.49 1.33975 7.5935 1.15575 7.72C0.98325 7.8465 0.85675 7.996 0.77625 8.1685C0.74175 8.2835 0.69 8.45025 0.621 8.66875C0.552 8.88725 0.51175 9.05975 0.50025 9.18625C0.43125 9.60025 0.39675 10.0142 0.39675 10.4282C0.44275 10.8077 0.45425 11.2275 0.43125 11.6875C0.41975 12.1475 0.4255 12.6075 0.4485 13.0675C0.4715 13.516 0.5405 13.9472 0.6555 14.3612C0.7705 14.7752 0.98325 15.1202 1.29375 15.3962C1.69625 15.7987 2.19075 16.0518 2.77725 16.1553C3.09925 16.1553 3.45575 16.1668 3.84675 16.1898C4.23775 16.2243 4.61725 16.2243 4.98525 16.1898C5.35325 16.1668 5.6925 16.0978 6.003 15.9827C6.325 15.8677 6.58375 15.6722 6.77925 15.3962C6.85975 15.3157 6.923 15.1892 6.969 15.0167C7.0265 14.8327 7.0725 14.62 7.107 14.3785C7.1415 14.1255 7.17025 13.8552 7.19325 13.5677C7.21625 13.2802 7.23925 12.987 7.26225 12.688ZM10.6154 7.97875C10.6154 7.89825 10.6096 7.84075 10.5981 7.80625C10.5981 7.77175 10.5981 7.743 10.5981 7.72C10.5981 7.6855 10.5981 7.64525 10.5981 7.59925C10.5981 7.55325 10.5981 7.48425 10.5981 7.39225C10.5981 7.36925 10.5464 7.35775 10.4429 7.35775C10.3509 7.34625 10.2359 7.34625 10.0979 7.35775C9.97135 7.36925 9.84485 7.38075 9.71835 7.39225C9.60335 7.40375 9.52285 7.4095 9.47685 7.4095C9.33885 7.421 9.22385 7.4325 9.13185 7.444C9.03985 7.444 8.9536 7.444 8.8731 7.444C8.7926 7.444 8.70635 7.444 8.61435 7.444C8.52235 7.4325 8.40735 7.421 8.26935 7.4095C8.22335 8.9275 8.21185 10.3937 8.23485 11.8082C8.26935 13.2227 8.2866 14.6372 8.2866 16.0518C8.5626 16.0288 8.79835 16.023 8.99385 16.0345C9.20085 16.046 9.3906 16.0518 9.5631 16.0518C9.7356 16.0633 9.90235 16.0633 10.0634 16.0518C10.2244 16.0403 10.4026 16.0058 10.5981 15.9482V15.8792C10.5981 15.4537 10.5924 15.057 10.5809 14.689C10.5809 14.3095 10.5809 13.9415 10.5809 13.585C10.5809 13.217 10.5751 12.8547 10.5636 12.4982C10.5521 12.1417 10.5406 11.7622 10.5291 11.3597C10.5176 11.0377 10.5636 10.7905 10.6671 10.618C10.7706 10.4455 10.9144 10.319 11.0984 10.2385C11.2939 10.158 11.5181 10.1177 11.7711 10.1177C12.0356 10.1177 12.3231 10.135 12.6336 10.1695C12.6451 10.1695 12.7199 10.181 12.8579 10.204C13.0074 10.227 13.1511 10.2557 13.2891 10.2902C13.3466 10.3132 13.4041 10.3362 13.4616 10.3592C13.5306 10.3707 13.5939 10.388 13.6514 10.411L13.8066 10.4627C13.7951 10.2902 13.7894 10.1062 13.7894 9.91075C13.7894 9.71525 13.7894 9.5025 13.7894 9.2725C13.7894 9.031 13.7894 8.76075 13.7894 8.46175C13.8009 8.16275 13.8066 7.81775 13.8066 7.42675C13.8066 7.41525 13.7204 7.4095 13.5479 7.4095C13.3869 7.398 13.1856 7.398 12.9441 7.4095C12.7026 7.421 12.4439 7.44975 12.1679 7.49575C11.8919 7.53025 11.6446 7.582 11.4261 7.651C11.2651 7.7085 11.0984 7.77175 10.9259 7.84075C10.7649 7.90975 10.6614 7.95575 10.6154 7.97875ZM16.6729 11.6702C16.7879 11.6932 16.9719 11.7105 17.2249 11.722C17.4779 11.7335 17.7597 11.7392 18.0702 11.7392C18.3922 11.7392 18.7257 11.7335 19.0707 11.722C19.4157 11.7105 19.7377 11.6932 20.0367 11.6702C20.3472 11.6472 20.6117 11.6242 20.8302 11.6012C21.0602 11.5782 21.2154 11.5552 21.2959 11.5322C21.3304 11.0492 21.3304 10.572 21.2959 10.1005C21.2614 9.629 21.1579 9.19775 20.9854 8.80675C20.8244 8.41575 20.5829 8.08225 20.2609 7.80625C19.9389 7.53025 19.5134 7.34625 18.9844 7.25425C18.5704 7.15075 18.1449 7.10475 17.7079 7.11625C17.2709 7.12775 16.8569 7.19675 16.4659 7.32325C16.0749 7.43825 15.7242 7.6165 15.4137 7.858C15.1032 8.088 14.8732 8.36975 14.7237 8.70325C14.5857 9.08275 14.4937 9.47375 14.4477 9.87625C14.4132 10.2672 14.3787 10.6755 14.3442 11.101C14.3212 11.5725 14.3327 12.044 14.3787 12.5155C14.4247 12.987 14.5109 13.4355 14.6374 13.861C14.7639 14.275 14.9307 14.6602 15.1377 15.0167C15.3447 15.3617 15.6034 15.6435 15.9139 15.862C16.1899 16.023 16.4889 16.1265 16.8109 16.1725C17.1329 16.1725 17.4837 16.184 17.8632 16.207C18.2542 16.23 18.6337 16.23 19.0017 16.207C19.3697 16.184 19.7089 16.115 20.0194 16C20.3299 15.885 20.5829 15.6895 20.7784 15.4135C20.8589 15.3445 20.9222 15.2237 20.9682 15.0512C21.0257 14.8672 21.0717 14.6545 21.1062 14.413C21.1407 14.16 21.1694 13.8897 21.1924 13.6022C21.2154 13.3147 21.2384 13.0215 21.2614 12.7225C21.1349 12.688 20.9739 12.6707 20.7784 12.6707C20.5829 12.6592 20.3759 12.6592 20.1574 12.6707C19.9504 12.6822 19.7492 12.6937 19.5537 12.7052C19.3582 12.7052 19.2029 12.6995 19.0879 12.688C19.1109 13.1595 19.0362 13.516 18.8637 13.7575C18.7027 13.9875 18.5014 14.1255 18.2599 14.1715C18.0184 14.2175 17.7712 14.1772 17.5182 14.0507C17.2652 13.9242 17.0697 13.7287 16.9317 13.4643C16.8052 13.2572 16.7304 13.0445 16.7074 12.826C16.6959 12.6075 16.6844 12.3257 16.6729 11.9807V11.6702ZM18.7602 8.9965C18.9672 9.1 19.1282 9.25525 19.2432 9.46225C19.3697 9.66925 19.4329 9.88775 19.4329 10.1177C19.4329 10.2097 19.4329 10.273 19.4329 10.3075C19.4329 10.3305 19.3984 10.3477 19.3294 10.3592C19.2719 10.3592 19.1684 10.3535 19.0189 10.342C18.8694 10.3305 18.6452 10.3247 18.3462 10.3247C17.9092 10.3247 17.5757 10.3305 17.3457 10.342C17.1272 10.342 16.9662 10.3362 16.8627 10.3247C16.7592 10.3017 16.7017 10.2672 16.6902 10.2212C16.6902 10.1637 16.7017 10.0717 16.7247 9.94525C16.7477 9.79575 16.7822 9.652 16.8282 9.514C16.8857 9.376 16.9662 9.25525 17.0697 9.15175C17.1732 9.04825 17.3112 8.96775 17.4837 8.91025C17.6562 8.85275 17.8804 8.824 18.1564 8.824C18.2829 8.824 18.3922 8.84125 18.4842 8.87575C18.5762 8.89875 18.6682 8.939 18.7602 8.9965ZM29.2195 7.4095C28.8515 7.3865 28.5237 7.36925 28.2362 7.35775C27.9602 7.34625 27.7245 7.33475 27.529 7.32325C27.4945 7.32325 27.4312 7.32325 27.3392 7.32325C27.2472 7.32325 27.1552 7.32325 27.0632 7.32325C26.9712 7.31175 26.885 7.31175 26.8045 7.32325C26.7355 7.32325 26.701 7.329 26.701 7.3405C26.701 7.4785 26.6837 7.6165 26.6492 7.7545C26.6262 7.881 26.6205 8.03625 26.632 8.22025C26.5515 8.02475 26.4537 7.87525 26.3387 7.77175C26.2237 7.65675 26.0915 7.57625 25.942 7.53025C25.7925 7.47275 25.6257 7.444 25.4417 7.444C25.2692 7.4325 25.0795 7.42675 24.8725 7.42675C24.47 7.43825 24.0905 7.5475 23.734 7.7545C23.3775 7.95 23.067 8.226 22.8025 8.5825C22.5495 8.9275 22.3482 9.3415 22.1987 9.8245C22.0492 10.3075 21.9745 10.8365 21.9745 11.4115C21.9745 11.8715 22.0205 12.3717 22.1125 12.9122C22.216 13.4527 22.3712 13.953 22.5782 14.413C22.7852 14.873 23.044 15.2582 23.3545 15.5687C23.6765 15.8792 24.0617 16.0345 24.5102 16.0345C24.9127 16.0345 25.321 15.9367 25.735 15.7412C26.1605 15.5457 26.5112 15.31 26.7872 15.034C26.7872 15.149 26.7757 15.2467 26.7527 15.3272C26.7297 15.4077 26.7182 15.5112 26.7182 15.6377C26.7182 15.7297 26.7297 15.8102 26.7527 15.8792C26.7872 15.9482 26.8447 15.9942 26.9252 16.0173C27.0517 16.0173 27.1725 16.0115 27.2875 16C27.414 15.977 27.5405 15.9655 27.667 15.9655C27.851 15.9655 28.035 15.977 28.219 16C28.4145 16.0115 28.6042 16.0173 28.7882 16.0173H28.9952C29.1332 15.9942 29.2022 15.908 29.2022 15.7585C29.2137 15.609 29.2195 15.4595 29.2195 15.31C29.3 14.0795 29.3172 12.8662 29.2712 11.6702C29.2252 10.4627 29.2195 9.238 29.254 7.996V7.8235C29.254 7.7545 29.2482 7.6855 29.2367 7.6165C29.2367 7.5475 29.231 7.4785 29.2195 7.4095ZM24.1997 10.8422C24.2572 10.5547 24.4182 10.3017 24.6827 10.0832C24.9587 9.85325 25.3325 9.73825 25.804 9.73825C26.0455 9.73825 26.2237 9.7555 26.3387 9.79C26.4652 9.8245 26.5515 9.905 26.5975 10.0315C26.655 10.158 26.6837 10.342 26.6837 10.5835C26.6952 10.8135 26.701 11.1297 26.701 11.5322C26.701 11.8542 26.6952 12.1475 26.6837 12.412C26.6837 12.665 26.6492 12.8835 26.5802 13.0675C26.5227 13.24 26.4192 13.378 26.2697 13.4815C26.1317 13.5735 25.919 13.6195 25.6315 13.6195C25.1485 13.6195 24.769 13.4412 24.493 13.0847C24.2285 12.7167 24.0962 12.274 24.0962 11.7565C24.0962 11.607 24.102 11.4575 24.1135 11.308C24.125 11.147 24.1537 10.9917 24.1997 10.8422ZM33.5593 4.201C33.3638 4.224 33.1683 4.22975 32.9728 4.21825C32.7773 4.20675 32.5818 4.19525 32.3863 4.18375C32.1908 4.16075 32.0011 4.1435 31.8171 4.132C31.6446 4.1205 31.4836 4.12625 31.3341 4.14925C31.3111 4.36775 31.2938 4.615 31.2823 4.891C31.2823 5.167 31.2823 5.4545 31.2823 5.7535C31.2823 6.0525 31.2881 6.3515 31.2996 6.6505C31.3111 6.938 31.3168 7.20825 31.3168 7.46125C31.1328 7.46125 30.9373 7.46125 30.7303 7.46125C30.5348 7.46125 30.3221 7.4555 30.0921 7.444L30.0403 9.5485C30.2818 9.5485 30.5003 9.5485 30.6958 9.5485C30.9028 9.5485 31.0983 9.54275 31.2823 9.53125C31.2708 10.3707 31.2766 11.1872 31.2996 11.9807C31.3226 12.7627 31.4088 13.5965 31.5583 14.482C31.7078 14.8385 31.9493 15.1202 32.2828 15.3272C32.6278 15.5342 33.0188 15.6895 33.4558 15.793C33.8928 15.8965 34.3586 15.9655 34.8531 16C35.3476 16.023 35.8248 16.023 36.2848 16C36.3423 15.8275 36.3768 15.6377 36.3883 15.4308C36.4113 15.2237 36.4171 15.0167 36.4056 14.8097C36.3941 14.6027 36.3768 14.4015 36.3538 14.206C36.3308 14.0105 36.3078 13.8322 36.2848 13.6712C36.0893 13.6827 35.8593 13.6827 35.5948 13.6712C35.3418 13.6597 35.0888 13.631 34.8358 13.585C34.5828 13.5275 34.3471 13.4527 34.1286 13.3607C33.9101 13.2687 33.7433 13.1422 33.6283 12.9812C33.6168 12.4637 33.6111 11.9117 33.6111 11.3252C33.6111 10.7272 33.6111 10.1177 33.6111 9.49675H36.2848C36.2618 9.34725 36.2561 9.169 36.2676 8.962C36.2906 8.7435 36.3078 8.53075 36.3193 8.32375C36.3308 8.11675 36.3308 7.927 36.3193 7.7545C36.3078 7.5705 36.2618 7.4325 36.1813 7.3405C35.5948 7.375 35.1003 7.40375 34.6978 7.42675C34.3068 7.44975 33.9331 7.467 33.5766 7.4785C33.5766 7.306 33.5708 7.13925 33.5593 6.97825C33.5593 6.81725 33.5593 6.662 33.5593 6.5125V4.201ZM39.2125 11.6702C39.3275 11.6932 39.5115 11.7105 39.7645 11.722C40.0175 11.7335 40.2992 11.7392 40.6097 11.7392C40.9317 11.7392 41.2652 11.7335 41.6102 11.722C41.9552 11.7105 42.2772 11.6932 42.5762 11.6702C42.8867 11.6472 43.1512 11.6242 43.3697 11.6012C43.5997 11.5782 43.755 11.5552 43.8355 11.5322C43.87 11.0492 43.87 10.572 43.8355 10.1005C43.801 9.629 43.6975 9.19775 43.525 8.80675C43.364 8.41575 43.1225 8.08225 42.8005 7.80625C42.4785 7.53025 42.053 7.34625 41.524 7.25425C41.11 7.15075 40.6845 7.10475 40.2475 7.11625C39.8105 7.12775 39.3965 7.19675 39.0055 7.32325C38.6145 7.43825 38.2637 7.6165 37.9532 7.858C37.6427 8.088 37.4127 8.36975 37.2632 8.70325C37.1252 9.08275 37.0332 9.47375 36.9872 9.87625C36.9527 10.2672 36.9182 10.6755 36.8837 11.101C36.8607 11.5725 36.8722 12.044 36.9182 12.5155C36.9642 12.987 37.0505 13.4355 37.177 13.861C37.3035 14.275 37.4702 14.6602 37.6772 15.0167C37.8842 15.3617 38.143 15.6435 38.4535 15.862C38.7295 16.023 39.0285 16.1265 39.3505 16.1725C39.6725 16.1725 40.0232 16.184 40.4027 16.207C40.7937 16.23 41.1732 16.23 41.5412 16.207C41.9092 16.184 42.2485 16.115 42.559 16C42.8695 15.885 43.1225 15.6895 43.318 15.4135C43.3985 15.3445 43.4617 15.2237 43.5077 15.0512C43.5652 14.8672 43.6112 14.6545 43.6457 14.413C43.6802 14.16 43.709 13.8897 43.732 13.6022C43.755 13.3147 43.778 13.0215 43.801 12.7225C43.6745 12.688 43.5135 12.6707 43.318 12.6707C43.1225 12.6592 42.9155 12.6592 42.697 12.6707C42.49 12.6822 42.2887 12.6937 42.0932 12.7052C41.8977 12.7052 41.7425 12.6995 41.6275 12.688C41.6505 13.1595 41.5757 13.516 41.4032 13.7575C41.2422 13.9875 41.041 14.1255 40.7995 14.1715C40.558 14.2175 40.3107 14.1772 40.0577 14.0507C39.8047 13.9242 39.6092 13.7287 39.4712 13.4643C39.3447 13.2572 39.27 13.0445 39.247 12.826C39.2355 12.6075 39.224 12.3257 39.2125 11.9807V11.6702ZM41.2997 8.9965C41.5067 9.1 41.6677 9.25525 41.7827 9.46225C41.9092 9.66925 41.9725 9.88775 41.9725 10.1177C41.9725 10.2097 41.9725 10.273 41.9725 10.3075C41.9725 10.3305 41.938 10.3477 41.869 10.3592C41.8115 10.3592 41.708 10.3535 41.5585 10.342C41.409 10.3305 41.1847 10.3247 40.8857 10.3247C40.4487 10.3247 40.1152 10.3305 39.8852 10.342C39.6667 10.342 39.5057 10.3362 39.4022 10.3247C39.2987 10.3017 39.2412 10.2672 39.2297 10.2212C39.2297 10.1637 39.2412 10.0717 39.2642 9.94525C39.2872 9.79575 39.3217 9.652 39.3677 9.514C39.4252 9.376 39.5057 9.25525 39.6092 9.15175C39.7127 9.04825 39.8507 8.96775 40.0232 8.91025C40.1957 8.85275 40.42 8.824 40.696 8.824C40.8225 8.824 40.9317 8.84125 41.0237 8.87575C41.1157 8.89875 41.2077 8.939 41.2997 8.9965ZM49.3095 4.063C49.298 4.293 49.2865 4.47125 49.275 4.59775C49.275 4.71275 49.2693 4.822 49.2578 4.9255C49.2578 5.0175 49.252 5.121 49.2405 5.236C49.2405 5.3395 49.2405 5.49475 49.2405 5.70175C49.2405 5.89725 49.2405 6.16175 49.2405 6.49525C49.2405 6.82875 49.2463 7.26575 49.2578 7.80625C49.2348 7.70275 49.1083 7.61075 48.8783 7.53025C48.6483 7.44975 48.3665 7.398 48.033 7.375C47.6995 7.3405 47.343 7.3405 46.9635 7.375C46.5955 7.398 46.2563 7.467 45.9458 7.582C45.6928 7.674 45.4743 7.835 45.2903 8.065C45.1178 8.2835 44.974 8.55375 44.859 8.87575C44.7555 9.18625 44.675 9.53125 44.6175 9.91075C44.5715 10.2902 44.5485 10.6812 44.5485 11.0837C44.56 11.6587 44.5945 12.228 44.652 12.7915C44.721 13.355 44.8475 13.8667 45.0315 14.3267C45.227 14.7752 45.5145 15.149 45.894 15.448C46.2735 15.7355 46.791 15.9022 47.4465 15.9482C47.7685 15.9943 48.0733 15.9712 48.3608 15.8792C48.6483 15.7757 48.8783 15.5515 49.0508 15.2065C49.0853 15.1375 49.114 15.1202 49.137 15.1547C49.1715 15.1777 49.2003 15.218 49.2233 15.2755C49.2233 15.402 49.2233 15.4997 49.2233 15.5687C49.2348 15.6377 49.2405 15.7297 49.2405 15.8447C49.2405 15.9022 49.2463 15.9425 49.2578 15.9655C49.6028 16.0115 49.988 16.023 50.4135 16C50.839 15.9885 51.23 15.9827 51.5865 15.9827C51.6325 14.3267 51.6268 12.5615 51.5693 10.687C51.5118 8.8125 51.483 6.915 51.483 4.9945V3.856C51.299 3.8215 51.0805 3.80425 50.8275 3.80425C50.5745 3.79275 50.333 3.79275 50.103 3.80425C49.8845 3.80425 49.6948 3.81575 49.5338 3.83875C49.3843 3.85025 49.3095 3.86175 49.3095 3.87325V4.063ZM46.6358 10.5662C46.6933 10.1637 46.86 9.859 47.136 9.652C47.4235 9.445 47.803 9.3415 48.2745 9.3415C48.516 9.3415 48.7058 9.3645 48.8438 9.4105C48.9933 9.445 49.1025 9.53125 49.1715 9.66925C49.2405 9.80725 49.2808 10.0085 49.2923 10.273C49.3153 10.526 49.3268 10.8767 49.3268 11.3252C49.3268 11.6932 49.3153 12.0325 49.2923 12.343C49.2808 12.642 49.229 12.9007 49.137 13.1192C49.0565 13.3377 48.93 13.5102 48.7575 13.6367C48.5965 13.7632 48.3723 13.8265 48.0848 13.8265C47.8433 13.8265 47.6248 13.7632 47.4293 13.6367C47.2338 13.5102 47.067 13.3435 46.929 13.1365C46.791 12.918 46.6875 12.6765 46.6185 12.412C46.5495 12.136 46.515 11.8542 46.515 11.5668C46.515 11.4057 46.5208 11.239 46.5323 11.0665C46.5438 10.894 46.5783 10.7272 46.6358 10.5662ZM58.5053 3.87325C58.5053 3.86175 58.4248 3.85025 58.2638 3.83875C58.1143 3.81575 57.9245 3.80425 57.6945 3.80425C57.476 3.79275 57.2403 3.79275 56.9873 3.80425C56.7343 3.80425 56.5158 3.8215 56.3318 3.856V4.9945C56.3318 5.949 56.3203 6.9035 56.2973 7.858C56.2743 8.8125 56.2513 9.7555 56.2283 10.687C56.2168 11.607 56.2053 12.5155 56.1938 13.4125C56.1938 14.298 56.2053 15.1547 56.2283 15.9827C56.5848 15.9827 56.9758 15.9885 57.4013 16C57.8268 16.023 58.212 16.0115 58.557 15.9655C58.5685 15.9425 58.5743 15.9022 58.5743 15.8447C58.5743 15.7297 58.5743 15.6377 58.5743 15.5687C58.5858 15.4997 58.5915 15.402 58.5915 15.2755C58.6145 15.218 58.6375 15.1777 58.6605 15.1547C58.695 15.1202 58.7295 15.1375 58.764 15.2065C58.9365 15.5515 59.1665 15.7757 59.454 15.8792C59.7415 15.9712 60.0463 15.9943 60.3683 15.9482C61.0238 15.9022 61.5413 15.7355 61.9208 15.448C62.3003 15.149 62.582 14.7752 62.766 14.3267C62.9615 13.8667 63.088 13.355 63.1455 12.7915C63.203 12.228 63.2433 11.6587 63.2663 11.0837C63.2663 10.6812 63.2375 10.2902 63.18 9.91075C63.134 9.53125 63.0535 9.18625 62.9385 8.87575C62.835 8.55375 62.6913 8.2835 62.5073 8.065C62.3348 7.835 62.122 7.674 61.869 7.582C61.5585 7.467 61.2135 7.398 60.834 7.375C60.466 7.3405 60.1153 7.3405 59.7818 7.375C59.4483 7.398 59.1665 7.44975 58.9365 7.53025C58.7065 7.61075 58.58 7.70275 58.557 7.80625C58.5685 7.26575 58.5743 6.82875 58.5743 6.49525C58.5743 6.16175 58.5743 5.89725 58.5743 5.70175C58.5743 5.49475 58.5685 5.3395 58.557 5.236C58.557 5.121 58.5513 5.0175 58.5398 4.9255C58.5398 4.822 58.534 4.71275 58.5225 4.59775C58.5225 4.47125 58.5168 4.293 58.5053 4.063V3.87325ZM61.179 10.5662C61.2365 10.7272 61.271 10.894 61.2825 11.0665C61.294 11.239 61.2998 11.4057 61.2998 11.5668C61.2998 11.8542 61.2653 12.136 61.1963 12.412C61.1273 12.6765 61.0238 12.918 60.8858 13.1365C60.7478 13.3435 60.581 13.5102 60.3855 13.6367C60.19 13.7632 59.9715 13.8265 59.73 13.8265C59.431 13.8265 59.201 13.7632 59.04 13.6367C58.879 13.5102 58.7525 13.3377 58.6605 13.1192C58.58 12.9007 58.5283 12.642 58.5053 12.343C58.4938 12.0325 58.488 11.6932 58.488 11.3252C58.488 10.8767 58.4938 10.526 58.5053 10.273C58.5283 10.0085 58.5743 9.80725 58.6433 9.66925C58.7123 9.53125 58.8158 9.445 58.9538 9.4105C59.1033 9.3645 59.2988 9.3415 59.5403 9.3415C60.0118 9.3415 60.3855 9.445 60.6615 9.652C60.949 9.859 61.1215 10.1637 61.179 10.5662ZM66.012 7.42675C65.644 7.38075 65.23 7.375 64.77 7.4095C64.31 7.4325 63.873 7.421 63.459 7.375C63.8155 8.6745 64.1777 10.02 64.5457 11.4115C64.9137 12.803 65.2185 14.1945 65.46 15.586C65.5175 15.9655 65.483 16.2415 65.3565 16.414C65.2415 16.5865 65.069 16.6958 64.839 16.7418C64.609 16.7993 64.3445 16.8165 64.0455 16.7935C63.758 16.7705 63.4762 16.759 63.2002 16.759C63.1427 17.081 63.1197 17.4548 63.1312 17.8803C63.1312 18.3173 63.1887 18.7083 63.3037 19.0533C64.2812 19.1108 65.1035 19.036 65.7705 18.829C66.449 18.622 67.0125 18.3173 67.461 17.9148C67.921 17.5238 68.289 17.058 68.565 16.5175C68.841 15.977 69.0652 15.4077 69.2377 14.8097C69.4217 14.2117 69.5712 13.6022 69.6862 12.9812C69.8127 12.3602 69.9507 11.768 70.1002 11.2045C70.2382 10.6065 70.3762 9.997 70.5142 9.376C70.6637 8.7435 70.8305 8.08225 71.0145 7.39225C70.5315 7.35775 70.0887 7.352 69.6862 7.375C69.2837 7.398 68.887 7.40375 68.496 7.39225C68.358 7.73725 68.243 8.1915 68.151 8.755C68.059 9.3185 67.9727 9.905 67.8922 10.5145C67.8232 11.124 67.7485 11.7105 67.668 12.274C67.5875 12.8375 67.484 13.2917 67.3575 13.6367C67.231 13.2917 67.1045 12.8547 66.978 12.3257C66.8515 11.7852 66.7307 11.2217 66.6157 10.6352C66.5007 10.0487 66.3915 9.47375 66.288 8.91025C66.1845 8.33525 66.0925 7.84075 66.012 7.42675Z" fill="#FB0000"/>
</svg>
