<svg width="30" height="30" viewBox="0 0 30 30" fill="none" xmlns="http://www.w3.org/2000/svg">
<path fill-rule="evenodd" clip-rule="evenodd" d="M10.9763 8.71134C11.0636 8.79842 11.1329 8.90188 11.1802 9.01578C11.2274 9.12967 11.2518 9.25177 11.2518 9.37509C11.2518 9.4984 11.2274 9.6205 11.1802 9.7344C11.1329 9.8483 11.0636 9.95175 10.9763 10.0388L6.01321 15.0001L10.9763 19.9613C11.0635 20.0485 11.1326 20.152 11.1798 20.2659C11.227 20.3798 11.2513 20.5018 11.2513 20.6251C11.2513 20.7484 11.227 20.8704 11.1798 20.9843C11.1326 21.0982 11.0635 21.2017 10.9763 21.2888C10.8892 21.376 10.7857 21.4451 10.6718 21.4923C10.5579 21.5395 10.4359 21.5638 10.3126 21.5638C10.1893 21.5638 10.0673 21.5395 9.95337 21.4923C9.83948 21.4451 9.736 21.376 9.64884 21.2888L4.02384 15.6638C3.93653 15.5768 3.86727 15.4733 3.82 15.3594C3.77274 15.2455 3.74841 15.1234 3.74841 15.0001C3.74841 14.8768 3.77274 14.7547 3.82 14.6408C3.86727 14.5269 3.93653 14.4234 4.02384 14.3363L9.64884 8.71134C9.73592 8.62403 9.83938 8.55476 9.95328 8.5075C10.0672 8.46024 10.1893 8.43591 10.3126 8.43591C10.4359 8.43591 10.558 8.46024 10.6719 8.5075C10.7858 8.55476 10.8893 8.62403 10.9763 8.71134Z" fill="black"/>
<path fill-rule="evenodd" clip-rule="evenodd" d="M4.6875 15C4.6875 14.7514 4.78627 14.5129 4.96209 14.3371C5.1379 14.1613 5.37636 14.0625 5.625 14.0625H25.3125C25.5611 14.0625 25.7996 14.1613 25.9754 14.3371C26.1512 14.5129 26.25 14.7514 26.25 15C26.25 15.2486 26.1512 15.4871 25.9754 15.6629C25.7996 15.8387 25.5611 15.9375 25.3125 15.9375H5.625C5.37636 15.9375 5.1379 15.8387 4.96209 15.6629C4.78627 15.4871 4.6875 15.2486 4.6875 15Z" fill="black"/>
</svg>
