<svg width="29" height="29" viewBox="0 0 29 29" fill="none" xmlns="http://www.w3.org/2000/svg">
<path d="M21.75 9.66659H24.1667C24.4871 9.66659 24.7945 9.79389 25.0211 10.0205C25.2477 10.2471 25.375 10.5544 25.375 10.8749V25.3749C25.375 25.6954 25.2477 26.0027 25.0211 26.2293C24.7945 26.4559 24.4871 26.5833 24.1667 26.5833H4.83333C4.51286 26.5833 4.20552 26.4559 3.97891 26.2293C3.75231 26.0027 3.625 25.6954 3.625 25.3749V10.8749C3.625 10.5544 3.75231 10.2471 3.97891 10.0205C4.20552 9.79389 4.51286 9.66659 4.83333 9.66659H7.25V8.45825C7.25 6.53543 8.01384 4.69137 9.37348 3.33173C10.7331 1.97209 12.5772 1.20825 14.5 1.20825C16.4228 1.20825 18.2669 1.97209 19.6265 3.33173C20.9862 4.69137 21.75 6.53543 21.75 8.45825V9.66659ZM19.3333 9.66659V8.45825C19.3333 7.17637 18.8241 5.94699 17.9177 5.04057C17.0113 4.13414 15.7819 3.62492 14.5 3.62492C13.2181 3.62492 11.9887 4.13414 11.0823 5.04057C10.1759 5.94699 9.66667 7.17637 9.66667 8.45825V9.66659H19.3333ZM13.2917 16.9166V19.3333H15.7083V16.9166H13.2917ZM8.45833 16.9166V19.3333H10.875V16.9166H8.45833ZM18.125 16.9166V19.3333H20.5417V16.9166H18.125Z" fill="#22668A"/>
</svg>
