<svg width="22" height="31" viewBox="0 0 22 31" fill="none" xmlns="http://www.w3.org/2000/svg">
<g clip-path="url(#clip0)">
<path d="M15.17 15.5L21.4244 9.44107C22.1919 8.69756 22.1919 7.49207 21.4244 6.74795L20.0344 5.40139C19.2669 4.65787 18.0225 4.65787 17.2544 5.40139L11 11.4603L4.74563 5.40139C3.97813 4.65787 2.73375 4.65787 1.96563 5.40139L0.575625 6.74795C-0.191875 7.49146 -0.191875 8.69695 0.575625 9.44107L6.83 15.5L0.575625 21.5589C-0.191875 22.3024 -0.191875 23.5079 0.575625 24.2521L1.96563 25.5986C2.73312 26.3421 3.97813 26.3421 4.74563 25.5986L11 19.5397L17.2544 25.5986C18.0219 26.3421 19.2669 26.3421 20.0344 25.5986L21.4244 24.2521C22.1919 23.5085 22.1919 22.303 21.4244 21.5589L15.17 15.5Z" fill="#FF0606"/>
</g>
<defs>
<clipPath id="clip0">
<rect width="22" height="31" fill="white"/>
</clipPath>
</defs>
</svg>
