<svg width="29" height="29" viewBox="0 0 29 29" fill="none" xmlns="http://www.w3.org/2000/svg">
<path d="M14.5 5.4375C16.3737 5.4375 17.9387 3.9773 18.125 2.15234C18.142 1.98242 17.9551 1.8125 17.7852 1.8125C17.6933 1.81259 17.6022 1.82988 17.5167 1.86348C17.5054 1.86801 16.3216 2.32227 14.5 2.32227C12.6785 2.32227 11.4924 1.86914 11.4833 1.86348C11.3868 1.82989 11.2853 1.81267 11.1831 1.8125H11.1797C11.1374 1.81474 11.0959 1.82532 11.0577 1.84363C11.0194 1.86193 10.9852 1.88761 10.9568 1.91918C10.9285 1.95075 10.9067 1.9876 10.8927 2.02761C10.8787 2.06762 10.8726 2.11001 10.875 2.15234C11.0648 3.97391 12.6309 5.4375 14.5 5.4375Z" fill="#22668A"/>
<path d="M27.4871 5.09191L20.1641 2.52836C20.1327 2.51742 20.0994 2.5135 20.0663 2.51689C20.0333 2.52028 20.0014 2.53089 19.9729 2.54796C19.9444 2.56504 19.9201 2.58817 19.9015 2.61571C19.883 2.64325 19.8707 2.67453 19.8656 2.70734C19.6537 3.9767 18.9985 5.12976 18.0164 5.96147C17.0344 6.79318 15.7892 7.24962 14.5023 7.24962C13.2154 7.24962 11.9702 6.79318 10.9881 5.96147C10.0061 5.12976 9.35086 3.9767 9.13898 2.70734C9.13401 2.67399 9.12166 2.64216 9.10283 2.61419C9.08399 2.58621 9.05915 2.5628 9.03011 2.54565C9.00108 2.5285 8.96858 2.51804 8.93499 2.51505C8.9014 2.51206 8.86756 2.51661 8.83595 2.52836L1.51289 5.09191C1.30792 5.16366 1.13553 5.30663 1.02711 5.49479C0.918681 5.68295 0.881427 5.90379 0.922126 6.11711L1.86406 11.1015C1.90031 11.2915 1.99639 11.4649 2.13825 11.5963C2.28011 11.7278 2.46031 11.8104 2.6525 11.8321L5.42109 12.1448C5.53411 12.1575 5.6382 12.2123 5.7127 12.2983C5.7872 12.3842 5.82666 12.495 5.82324 12.6087L5.40806 26.2534C5.40256 26.4293 5.44837 26.6029 5.53989 26.7532C5.63142 26.9035 5.76471 27.0238 5.92349 27.0996C6.05548 27.1593 6.19894 27.1892 6.34377 27.1874H22.6563C22.8011 27.1892 22.9446 27.1593 23.0765 27.0996C23.2353 27.0238 23.3686 26.9035 23.4601 26.7532C23.5517 26.6029 23.5975 26.4293 23.592 26.2534L23.1768 12.6087C23.1734 12.495 23.2128 12.3842 23.2873 12.2983C23.3618 12.2123 23.4659 12.1575 23.5789 12.1448L26.3475 11.8321C26.5397 11.8104 26.7199 11.7278 26.8618 11.5963C27.0036 11.4649 27.0997 11.2915 27.136 11.1015L28.0779 6.11711C28.1186 5.90379 28.0814 5.68295 27.9729 5.49479C27.8645 5.30663 27.6921 5.16366 27.4871 5.09191Z" fill="#22668A"/>
</svg>
