<svg width="25" height="25" viewBox="0 0 25 25" fill="none" xmlns="http://www.w3.org/2000/svg">
<path d="M23.1079 12.3291L13.0518 2.28025C12.9794 2.2077 12.8933 2.15015 12.7987 2.11088C12.704 2.07161 12.6025 2.05139 12.5 2.05139C12.3975 2.05139 12.296 2.07161 12.2013 2.11088C12.1067 2.15015 12.0206 2.2077 11.9482 2.28025L1.89209 12.3291C1.59912 12.6221 1.43311 13.02 1.43311 13.435C1.43311 14.2969 2.13379 14.9975 2.99561 14.9975H4.05518V22.1679C4.05518 22.6001 4.4043 22.9492 4.83643 22.9492H10.9375V17.4804H13.6719V22.9492H20.1636C20.5957 22.9492 20.9448 22.6001 20.9448 22.1679V14.9975H22.0044C22.4194 14.9975 22.8174 14.834 23.1104 14.5386C23.7183 13.9282 23.7183 12.9394 23.1079 12.3291Z" fill="white"/>
</svg>
