<svg width="25" height="25" viewBox="0 0 25 25" fill="none" xmlns="http://www.w3.org/2000/svg">
<path d="M9.37503 22.2222C10.3339 22.2222 11.1111 21.4449 11.1111 20.4861C11.1111 19.5273 10.3339 18.75 9.37503 18.75C8.4162 18.75 7.63892 19.5273 7.63892 20.4861C7.63892 21.4449 8.4162 22.2222 9.37503 22.2222Z" fill="white"/>
<path d="M18.4027 22.2222C19.3616 22.2222 20.1388 21.4449 20.1388 20.4861C20.1388 19.5273 19.3616 18.75 18.4027 18.75C17.4439 18.75 16.6666 19.5273 16.6666 20.4861C16.6666 21.4449 17.4439 22.2222 18.4027 22.2222Z" fill="white"/>
<path d="M22.9861 4.43745C22.9214 4.35341 22.8383 4.28531 22.7432 4.23836C22.6481 4.19141 22.5436 4.16687 22.4375 4.16662H6.39584L6.08334 3.17356C6.04901 3.06694 5.9894 2.9702 5.90959 2.8916C5.82978 2.813 5.73214 2.75487 5.62501 2.72217L2.77778 1.84717C2.69024 1.82027 2.59825 1.81087 2.50707 1.81952C2.41589 1.82817 2.32731 1.85469 2.24638 1.89758C2.08293 1.98418 1.96059 2.13217 1.90626 2.30898C1.85192 2.48579 1.87005 2.67694 1.95666 2.84039C2.04326 3.00383 2.19125 3.12617 2.36806 3.18051L4.86112 3.94439L8.04167 13.993L6.90973 14.9236L6.81945 15.0138C6.53952 15.338 6.38092 15.7493 6.37078 16.1775C6.36065 16.6057 6.49961 17.024 6.76389 17.3611C6.95317 17.5912 7.19369 17.7739 7.46621 17.8945C7.73873 18.0151 8.03569 18.0702 8.33334 18.0555H19.9236C20.1078 18.0555 20.2844 17.9823 20.4147 17.8521C20.5449 17.7219 20.6181 17.5452 20.6181 17.3611C20.6181 17.1769 20.5449 17.0002 20.4147 16.87C20.2844 16.7398 20.1078 16.6666 19.9236 16.6666H8.22223C8.14226 16.6639 8.06435 16.6406 7.99602 16.5989C7.92769 16.5573 7.87125 16.4988 7.83215 16.4289C7.79306 16.3591 7.77263 16.2804 7.77284 16.2004C7.77304 16.1204 7.79388 16.0418 7.83334 15.9722L9.50695 14.5833H20.2222C20.3809 14.5879 20.5363 14.5381 20.6626 14.442C20.789 14.346 20.8787 14.2096 20.9167 14.0555L23.1389 5.02773C23.16 4.9242 23.1572 4.81722 23.1308 4.71493C23.1043 4.61263 23.0548 4.51773 22.9861 4.43745Z" fill="white"/>
</svg>
