<svg width="25" height="25" viewBox="0 0 25 25" fill="none" xmlns="http://www.w3.org/2000/svg">
<path d="M12.5 2.05078C10.8457 2.05078 9.375 1.5625 9.375 1.5625V1.66016C9.375 2.48896 9.70424 3.28381 10.2903 3.86987C10.8763 4.45592 11.6712 4.78516 12.5 4.78516C13.3288 4.78516 14.1237 4.45592 14.7097 3.86987C15.2958 3.28381 15.625 2.48896 15.625 1.66016V1.5625C15.625 1.5625 14.1543 2.05078 12.5 2.05078Z" fill="white"/>
<path d="M17.1875 2.14844C16.9194 4.48047 14.9028 6.29883 12.5 6.29883C10.0972 6.29883 8.08057 4.48047 7.8125 2.14844L0.78125 4.58984L1.66016 10.1562L4.67334 10.5186C5.01904 10.5625 5.02002 10.5625 5.02002 10.9185L4.6875 23.4375H20.3125L19.98 10.9185C19.9697 10.5767 19.9697 10.5767 20.3267 10.5186L23.3398 10.1562L24.2188 4.58984L17.1875 2.14844Z" fill="white"/>
</svg>
