<svg width="25" height="25" viewBox="0 0 25 25" fill="none" xmlns="http://www.w3.org/2000/svg">
<path d="M9.37503 22.2222C10.3339 22.2222 11.1111 21.4449 11.1111 20.4861C11.1111 19.5273 10.3339 18.75 9.37503 18.75C8.4162 18.75 7.63892 19.5273 7.63892 20.4861C7.63892 21.4449 8.4162 22.2222 9.37503 22.2222Z" fill="black"/>
<path d="M18.4027 22.2222C19.3616 22.2222 20.1388 21.4449 20.1388 20.4861C20.1388 19.5273 19.3616 18.75 18.4027 18.75C17.4439 18.75 16.6666 19.5273 16.6666 20.4861C16.6666 21.4449 17.4439 22.2222 18.4027 22.2222Z" fill="black"/>
<path d="M22.9861 4.43751C22.9214 4.35347 22.8383 4.28537 22.7432 4.23842C22.6481 4.19147 22.5436 4.16693 22.4375 4.16668H6.39584L6.08334 3.17362C6.04901 3.067 5.9894 2.97026 5.90959 2.89166C5.82978 2.81306 5.73214 2.75493 5.62501 2.72223L2.77778 1.84723C2.69024 1.82033 2.59825 1.81094 2.50707 1.81958C2.41589 1.82823 2.32731 1.85475 2.24638 1.89764C2.08293 1.98424 1.96059 2.13223 1.90626 2.30904C1.85192 2.48585 1.87005 2.677 1.95666 2.84045C2.04326 3.00389 2.19125 3.12623 2.36806 3.18057L4.86112 3.94446L8.04167 13.9931L6.90973 14.9236L6.81945 15.0139C6.53952 15.338 6.38092 15.7494 6.37079 16.1775C6.36065 16.6057 6.49961 17.0241 6.7639 17.3611C6.95317 17.5913 7.19369 17.774 7.46621 17.8946C7.73874 18.0152 8.0357 18.0703 8.33334 18.0556H19.9236C20.1078 18.0556 20.2844 17.9824 20.4147 17.8522C20.5449 17.7219 20.6181 17.5453 20.6181 17.3611C20.6181 17.1769 20.5449 17.0003 20.4147 16.8701C20.2844 16.7398 20.1078 16.6667 19.9236 16.6667H8.22223C8.14226 16.6639 8.06435 16.6406 7.99602 16.599C7.92769 16.5574 7.87125 16.4988 7.83216 16.429C7.79306 16.3592 7.77263 16.2805 7.77284 16.2005C7.77304 16.1205 7.79388 16.0418 7.83334 15.9722L9.50695 14.5833H20.2222C20.3809 14.588 20.5363 14.5381 20.6627 14.4421C20.789 14.3461 20.8787 14.2096 20.9167 14.0556L23.1389 5.02779C23.16 4.92426 23.1572 4.81728 23.1308 4.71499C23.1043 4.6127 23.0548 4.51779 22.9861 4.43751Z" fill="black"/>
</svg>
