<svg width="29" height="29" viewBox="0 0 29 29" fill="none" xmlns="http://www.w3.org/2000/svg">
<path d="M28.1504 15.4629L18.6348 24.9785C17.7852 25.8281 16.3125 25.2334 16.3125 24.0156V18.5781H8.60938C7.85605 18.5781 7.25 17.9721 7.25 17.2187V11.7812C7.25 11.0279 7.85605 10.4219 8.60938 10.4219H16.3125V4.98436C16.3125 3.77225 17.7795 3.17186 18.6348 4.02147L28.1504 13.5371C28.6771 14.0695 28.6771 14.9305 28.1504 15.4629ZM10.875 24.6953V22.4297C10.875 22.0558 10.5691 21.75 10.1953 21.75H5.4375C4.43496 21.75 3.625 20.94 3.625 19.9375V9.06248C3.625 8.05995 4.43496 7.24998 5.4375 7.24998H10.1953C10.5691 7.24998 10.875 6.94412 10.875 6.5703V4.30467C10.875 3.93084 10.5691 3.62498 10.1953 3.62498H5.4375C2.43555 3.62498 0 6.06053 0 9.06248V19.9375C0 22.9394 2.43555 25.375 5.4375 25.375H10.1953C10.5691 25.375 10.875 25.0691 10.875 24.6953Z" fill="#22668A"/>
</svg>
