<svg width="30" height="30" viewBox="0 0 30 30" fill="none" xmlns="http://www.w3.org/2000/svg">
<path fill-rule="evenodd" clip-rule="evenodd" d="M19.0237 8.71122C19.1108 8.62391 19.2143 8.55464 19.3282 8.50738C19.4421 8.46012 19.5642 8.43579 19.6875 8.43579C19.8108 8.43579 19.9329 8.46012 20.0468 8.50738C20.1607 8.55464 20.2641 8.62391 20.3512 8.71122L25.9762 14.3362C26.0635 14.4233 26.1328 14.5268 26.1801 14.6407C26.2273 14.7545 26.2516 14.8767 26.2516 15C26.2516 15.1233 26.2273 15.2454 26.1801 15.3593C26.1328 15.4732 26.0635 15.5766 25.9762 15.6637L20.3512 21.2887C20.1752 21.4648 19.9364 21.5636 19.6875 21.5636C19.4385 21.5636 19.1998 21.4648 19.0237 21.2887C18.8477 21.1127 18.7488 20.8739 18.7488 20.625C18.7488 20.376 18.8477 20.1373 19.0237 19.9612L23.9868 15L19.0237 10.0387C18.9364 9.95163 18.8671 9.84818 18.8199 9.73428C18.7726 9.62038 18.7483 9.49828 18.7483 9.37497C18.7483 9.25165 18.7726 9.12955 18.8199 9.01565C18.8671 8.90176 18.9364 8.7983 19.0237 8.71122Z" fill="white"/>
<path fill-rule="evenodd" clip-rule="evenodd" d="M3.75 15C3.75 14.7514 3.84877 14.5129 4.02459 14.3371C4.2004 14.1613 4.43886 14.0625 4.6875 14.0625H24.375C24.6236 14.0625 24.8621 14.1613 25.0379 14.3371C25.2137 14.5129 25.3125 14.7514 25.3125 15C25.3125 15.2486 25.2137 15.4871 25.0379 15.6629C24.8621 15.8387 24.6236 15.9375 24.375 15.9375H4.6875C4.43886 15.9375 4.2004 15.8387 4.02459 15.6629C3.84877 15.4871 3.75 15.2486 3.75 15Z" fill="white"/>
</svg>
