<svg width="29" height="23" viewBox="0 0 29 23" fill="none" xmlns="http://www.w3.org/2000/svg">
<g clip-path="url(#clip0)">
<path d="M10.15 11.5C13.3536 11.5 15.95 8.92598 15.95 5.75C15.95 2.57402 13.3536 0 10.15 0C6.94641 0 4.35 2.57402 4.35 5.75C4.35 8.92598 6.94641 11.5 10.15 11.5ZM14.21 12.9375H13.4533C12.4473 13.3957 11.3281 13.6562 10.15 13.6562C8.97188 13.6562 7.85719 13.3957 6.84672 12.9375H6.09C2.72781 12.9375 0 15.6418 0 18.975V20.8438C0 22.0342 0.974219 23 2.175 23H14.6314C14.5227 22.6945 14.4773 22.3711 14.5136 22.0432L14.8217 19.3074L14.8761 18.8088L15.2341 18.4539L18.7367 14.9814C17.6266 13.7371 16.018 12.9375 14.21 12.9375ZM16.2627 19.4646L15.9545 22.2049C15.9047 22.6631 16.2944 23.0494 16.752 22.9955L19.5116 22.69L25.7602 16.4953L22.5112 13.2744L16.2627 19.4646ZM28.6828 12.0795L26.9655 10.377C26.5441 9.95918 25.8553 9.95918 25.4339 10.377L23.7211 12.075L23.5353 12.2592L26.7888 15.4801L28.6828 13.6023C29.1042 13.1801 29.1042 12.5018 28.6828 12.0795Z" fill="#22668A"/>
</g>
<defs>
<clipPath id="clip0">
<rect width="29" height="23" fill="white"/>
</clipPath>
</defs>
</svg>
